<svg id="visual" viewBox="0 0 960 540" width="960" height="540" xmlns="http://www.w3.org/2000/svg" xmlns:xlink="http://www.w3.org/1999/xlink" version="1.1"><path d="M0 33L53.3 31.3C106.7 29.7 213.3 26.3 320 24.7C426.7 23 533.3 23 640 23.8C746.7 24.7 853.3 26.3 906.7 27.2L960 28L960 0L906.7 0C853.3 0 746.7 0 640 0C533.3 0 426.7 0 320 0C213.3 0 106.7 0 53.3 0L0 0Z" fill="#93ceff"></path><path d="M0 109L53.3 107.2C106.7 105.3 213.3 101.7 320 99C426.7 96.3 533.3 94.7 640 92.8C746.7 91 853.3 89 906.7 88L960 87L960 26L906.7 25.2C853.3 24.3 746.7 22.7 640 21.8C533.3 21 426.7 21 320 22.7C213.3 24.3 106.7 27.7 53.3 29.3L0 31Z" fill="#aed9ff"></path><path d="M0 141L53.3 139.3C106.7 137.7 213.3 134.3 320 131.7C426.7 129 533.3 127 640 124.2C746.7 121.3 853.3 117.7 906.7 115.8L960 114L960 85L906.7 86C853.3 87 746.7 89 640 90.8C533.3 92.7 426.7 94.3 320 97C213.3 99.7 106.7 103.3 53.3 105.2L0 107Z" fill="#c7e4ff"></path><path d="M0 174L53.3 173C106.7 172 213.3 170 320 168.2C426.7 166.3 533.3 164.7 640 161.2C746.7 157.7 853.3 152.3 906.7 149.7L960 147L960 112L906.7 113.8C853.3 115.7 746.7 119.3 640 122.2C533.3 125 426.7 127 320 129.7C213.3 132.3 106.7 135.7 53.3 137.3L0 139Z" fill="#dfefff"></path><path d="M0 206L53.3 206C106.7 206 213.3 206 320 205.2C426.7 204.3 533.3 202.7 640 197.3C746.7 192 853.3 183 906.7 178.5L960 174L960 145L906.7 147.7C853.3 150.3 746.7 155.7 640 159.2C533.3 162.7 426.7 164.3 320 166.2C213.3 168 106.7 170 53.3 171L0 172Z" fill="#f6faff"></path><path d="M0 228L53.3 228C106.7 228 213.3 228 320 226.2C426.7 224.3 533.3 220.7 640 215.2C746.7 209.7 853.3 202.3 906.7 198.7L960 195L960 172L906.7 176.5C853.3 181 746.7 190 640 195.3C533.3 200.7 426.7 202.3 320 203.2C213.3 204 106.7 204 53.3 204L0 204Z" fill="#ffffff"></path><path d="M0 320L53.3 317.2C106.7 314.3 213.3 308.7 320 305C426.7 301.3 533.3 299.7 640 302.5C746.7 305.3 853.3 312.7 906.7 316.3L960 320L960 193L906.7 196.7C853.3 200.3 746.7 207.7 640 213.2C533.3 218.7 426.7 222.3 320 224.2C213.3 226 106.7 226 53.3 226L0 226Z" fill="#ffffff"></path><path d="M0 433L53.3 431.2C106.7 429.3 213.3 425.7 320 423.8C426.7 422 533.3 422 640 420.2C746.7 418.3 853.3 414.7 906.7 412.8L960 411L960 318L906.7 314.3C853.3 310.7 746.7 303.3 640 300.5C533.3 297.7 426.7 299.3 320 303C213.3 306.7 106.7 312.3 53.3 315.2L0 318Z" fill="#f6faff"></path><path d="M0 455L53.3 453.2C106.7 451.3 213.3 447.7 320 446.7C426.7 445.7 533.3 447.3 640 446.3C746.7 445.3 853.3 441.7 906.7 439.8L960 438L960 409L906.7 410.8C853.3 412.7 746.7 416.3 640 418.2C533.3 420 426.7 420 320 421.8C213.3 423.7 106.7 427.3 53.3 429.2L0 431Z" fill="#dfefff"></path><path d="M0 476L53.3 475.2C106.7 474.3 213.3 472.7 320 472.7C426.7 472.7 533.3 474.3 640 472.5C746.7 470.7 853.3 465.3 906.7 462.7L960 460L960 436L906.7 437.8C853.3 439.7 746.7 443.3 640 444.3C533.3 445.3 426.7 443.7 320 444.7C213.3 445.7 106.7 449.3 53.3 451.2L0 453Z" fill="#c7e4ff"></path><path d="M0 519L53.3 519C106.7 519 213.3 519 320 519C426.7 519 533.3 519 640 519C746.7 519 853.3 519 906.7 519L960 519L960 458L906.7 460.7C853.3 463.3 746.7 468.7 640 470.5C533.3 472.3 426.7 470.7 320 470.7C213.3 470.7 106.7 472.3 53.3 473.2L0 474Z" fill="#aed9ff"></path><path d="M0 541L53.3 541C106.7 541 213.3 541 320 541C426.7 541 533.3 541 640 541C746.7 541 853.3 541 906.7 541L960 541L960 517L906.7 517C853.3 517 746.7 517 640 517C533.3 517 426.7 517 320 517C213.3 517 106.7 517 53.3 517L0 517Z" fill="#93ceff"></path></svg>