<svg id="visual" viewBox="0 0 900 600" width="900" height="600" xmlns="http://www.w3.org/2000/svg" xmlns:xlink="http://www.w3.org/1999/xlink" version="1.1"><rect x="0" y="0" width="900" height="600" fill="#FFFFFF"></rect><defs><linearGradient id="grad1_0" x1="33.3%" y1="100%" x2="100%" y2="0%"><stop offset="20%" stop-color="#cccccc" stop-opacity="1"></stop><stop offset="80%" stop-color="#cccccc" stop-opacity="1"></stop></linearGradient></defs><defs><linearGradient id="grad1_1" x1="33.3%" y1="100%" x2="100%" y2="0%"><stop offset="20%" stop-color="#cccccc" stop-opacity="1"></stop><stop offset="80%" stop-color="#d9d9d9" stop-opacity="1"></stop></linearGradient></defs><defs><linearGradient id="grad1_2" x1="33.3%" y1="100%" x2="100%" y2="0%"><stop offset="20%" stop-color="#e5e5e5" stop-opacity="1"></stop><stop offset="80%" stop-color="#d9d9d9" stop-opacity="1"></stop></linearGradient></defs><defs><linearGradient id="grad1_3" x1="33.3%" y1="100%" x2="100%" y2="0%"><stop offset="20%" stop-color="#e5e5e5" stop-opacity="1"></stop><stop offset="80%" stop-color="#f2f2f2" stop-opacity="1"></stop></linearGradient></defs><defs><linearGradient id="grad1_4" x1="33.3%" y1="100%" x2="100%" y2="0%"><stop offset="20%" stop-color="#ffffff" stop-opacity="1"></stop><stop offset="80%" stop-color="#f2f2f2" stop-opacity="1"></stop></linearGradient></defs><defs><linearGradient id="grad2_0" x1="0%" y1="100%" x2="66.7%" y2="0%"><stop offset="20%" stop-color="#cccccc" stop-opacity="1"></stop><stop offset="80%" stop-color="#cccccc" stop-opacity="1"></stop></linearGradient></defs><defs><linearGradient id="grad2_1" x1="0%" y1="100%" x2="66.7%" y2="0%"><stop offset="20%" stop-color="#d9d9d9" stop-opacity="1"></stop><stop offset="80%" stop-color="#cccccc" stop-opacity="1"></stop></linearGradient></defs><defs><linearGradient id="grad2_2" x1="0%" y1="100%" x2="66.7%" y2="0%"><stop offset="20%" stop-color="#d9d9d9" stop-opacity="1"></stop><stop offset="80%" stop-color="#e5e5e5" stop-opacity="1"></stop></linearGradient></defs><defs><linearGradient id="grad2_3" x1="0%" y1="100%" x2="66.7%" y2="0%"><stop offset="20%" stop-color="#f2f2f2" stop-opacity="1"></stop><stop offset="80%" stop-color="#e5e5e5" stop-opacity="1"></stop></linearGradient></defs><defs><linearGradient id="grad2_4" x1="0%" y1="100%" x2="66.7%" y2="0%"><stop offset="20%" stop-color="#f2f2f2" stop-opacity="1"></stop><stop offset="80%" stop-color="#ffffff" stop-opacity="1"></stop></linearGradient></defs><g transform="translate(900, 600)"><path d="M-324.5 0C-287.8 -40.1 -251.1 -80.3 -228.6 -132C-206.2 -183.7 -198 -247 -162.2 -281C-126.5 -315 -63.3 -319.8 0 -324.5L0 0Z" fill="#f9f9f9"></path><path d="M-259.6 0C-230.2 -32.1 -200.9 -64.2 -182.9 -105.6C-164.9 -147 -158.4 -197.6 -129.8 -224.8C-101.2 -252 -50.6 -255.8 0 -259.6L0 0Z" fill="#ececec"></path><path d="M-194.7 0C-172.7 -24.1 -150.7 -48.2 -137.2 -79.2C-123.7 -110.2 -118.8 -148.2 -97.3 -168.6C-75.9 -189 -38 -191.9 0 -194.7L0 0Z" fill="#dfdfdf"></path><path d="M-129.8 0C-115.1 -16.1 -100.4 -32.1 -91.5 -52.8C-82.5 -73.5 -79.2 -98.8 -64.9 -112.4C-50.6 -126 -25.3 -127.9 0 -129.8L0 0Z" fill="#d2d2d2"></path><path d="M-64.9 0C-57.6 -8 -50.2 -16.1 -45.7 -26.4C-41.2 -36.7 -39.6 -49.4 -32.4 -56.2C-25.3 -63 -12.7 -64 0 -64.9L0 0Z" fill="#cccccc"></path></g><g transform="translate(0, 0)"><path d="M324.5 0C320 63.6 315.4 127.2 281 162.2C246.6 197.3 182.3 203.8 130.5 226C78.7 248.3 39.3 286.4 0 324.5L0 0Z" fill="#f9f9f9"></path><path d="M259.6 0C256 50.9 252.4 101.8 224.8 129.8C197.3 157.8 145.9 163 104.4 180.8C62.9 198.7 31.5 229.1 0 259.6L0 0Z" fill="#ececec"></path><path d="M194.7 0C192 38.2 189.3 76.3 168.6 97.3C148 118.4 109.4 122.3 78.3 135.6C47.2 149 23.6 171.8 0 194.7L0 0Z" fill="#dfdfdf"></path><path d="M129.8 0C128 25.4 126.2 50.9 112.4 64.9C98.6 78.9 72.9 81.5 52.2 90.4C31.5 99.3 15.7 114.6 0 129.8L0 0Z" fill="#d2d2d2"></path><path d="M64.9 0C64 12.7 63.1 25.4 56.2 32.4C49.3 39.5 36.5 40.8 26.1 45.2C15.7 49.7 7.9 57.3 0 64.9L0 0Z" fill="#cccccc"></path></g></svg>