<svg id="visual" viewBox="0 0 960 540" width="960" height="540" xmlns="http://www.w3.org/2000/svg" xmlns:xlink="http://www.w3.org/1999/xlink" version="1.1"><rect x="0" y="0" width="960" height="540" fill="#FFFFFF"></rect><defs><linearGradient id="grad1_0" x1="43.8%" y1="0%" x2="100%" y2="100%"><stop offset="14.444444444444446%" stop-color="#00ca00" stop-opacity="1"></stop><stop offset="85.55555555555554%" stop-color="#00ca00" stop-opacity="1"></stop></linearGradient></defs><defs><linearGradient id="grad1_1" x1="43.8%" y1="0%" x2="100%" y2="100%"><stop offset="14.444444444444446%" stop-color="#00ca00" stop-opacity="1"></stop><stop offset="85.55555555555554%" stop-color="#83de6d" stop-opacity="1"></stop></linearGradient></defs><defs><linearGradient id="grad1_2" x1="43.8%" y1="0%" x2="100%" y2="100%"><stop offset="14.444444444444446%" stop-color="#c5efb6" stop-opacity="1"></stop><stop offset="85.55555555555554%" stop-color="#83de6d" stop-opacity="1"></stop></linearGradient></defs><defs><linearGradient id="grad1_3" x1="43.8%" y1="0%" x2="100%" y2="100%"><stop offset="14.444444444444446%" stop-color="#c5efb6" stop-opacity="1"></stop><stop offset="85.55555555555554%" stop-color="#ffffff" stop-opacity="1"></stop></linearGradient></defs><defs><linearGradient id="grad2_0" x1="0%" y1="0%" x2="56.3%" y2="100%"><stop offset="14.444444444444446%" stop-color="#00ca00" stop-opacity="1"></stop><stop offset="85.55555555555554%" stop-color="#00ca00" stop-opacity="1"></stop></linearGradient></defs><defs><linearGradient id="grad2_1" x1="0%" y1="0%" x2="56.3%" y2="100%"><stop offset="14.444444444444446%" stop-color="#83de6d" stop-opacity="1"></stop><stop offset="85.55555555555554%" stop-color="#00ca00" stop-opacity="1"></stop></linearGradient></defs><defs><linearGradient id="grad2_2" x1="0%" y1="0%" x2="56.3%" y2="100%"><stop offset="14.444444444444446%" stop-color="#83de6d" stop-opacity="1"></stop><stop offset="85.55555555555554%" stop-color="#c5efb6" stop-opacity="1"></stop></linearGradient></defs><defs><linearGradient id="grad2_3" x1="0%" y1="0%" x2="56.3%" y2="100%"><stop offset="14.444444444444446%" stop-color="#ffffff" stop-opacity="1"></stop><stop offset="85.55555555555554%" stop-color="#c5efb6" stop-opacity="1"></stop></linearGradient></defs><g transform="translate(960, 0)"><path d="M0 297C-60.6 294.2 -121.3 291.5 -148.5 257.2C-175.7 222.9 -169.6 157.1 -188.8 109C-208 60.9 -252.5 30.4 -297 0L0 0Z" fill="#e2f7da"></path><path d="M0 222.8C-45.5 220.7 -90.9 218.6 -111.4 192.9C-131.8 167.2 -127.2 117.8 -141.6 81.8C-156 45.7 -189.4 22.8 -222.7 0L0 0Z" fill="#a5e792"></path><path d="M0 148.5C-30.3 147.1 -60.6 145.7 -74.2 128.6C-87.9 111.5 -84.8 78.6 -94.4 54.5C-104 30.4 -126.2 15.2 -148.5 0L0 0Z" fill="#59d445"></path><path d="M0 74.3C-15.2 73.6 -30.3 72.9 -37.1 64.3C-43.9 55.7 -42.4 39.3 -47.2 27.3C-52 15.2 -63.1 7.6 -74.2 0L0 0Z" fill="#00ca00"></path></g><g transform="translate(0, 540)"><path d="M0 -297C56.2 -291.7 112.5 -286.4 148.5 -257.2C184.5 -228 200.3 -174.9 221.7 -128C243.1 -81.1 270 -40.6 297 0L0 0Z" fill="#e2f7da"></path><path d="M0 -222.7C42.2 -218.8 84.4 -214.8 111.4 -192.9C138.4 -171 150.2 -131.1 166.3 -96C182.3 -60.9 202.5 -30.4 222.8 0L0 0Z" fill="#a5e792"></path><path d="M0 -148.5C28.1 -145.9 56.2 -143.2 74.2 -128.6C92.3 -114 100.2 -87.4 110.9 -64C121.5 -40.6 135 -20.3 148.5 0L0 0Z" fill="#59d445"></path><path d="M0 -74.2C14.1 -72.9 28.1 -71.6 37.1 -64.3C46.1 -57 50.1 -43.7 55.4 -32C60.8 -20.3 67.5 -10.1 74.3 0L0 0Z" fill="#00ca00"></path></g></svg>