<svg id="visual" viewBox="0 0 540 960" width="540" height="960" xmlns="http://www.w3.org/2000/svg" xmlns:xlink="http://www.w3.org/1999/xlink" version="1.1"><rect x="0" y="0" width="540" height="960" fill="#ffffff"></rect><path d="M342 960L357.8 947.7C373.7 935.3 405.3 910.7 404 886C402.7 861.3 368.3 836.7 356.5 812C344.7 787.3 355.3 762.7 361 738.2C366.7 713.7 367.3 689.3 368 664.8C368.7 640.3 369.3 615.7 366 591C362.7 566.3 355.3 541.7 369.5 517C383.7 492.3 419.3 467.7 442 443C464.7 418.3 474.3 393.7 471.7 369C469 344.3 454 319.7 438.3 295.2C422.7 270.7 406.3 246.3 394.5 221.8C382.7 197.3 375.3 172.7 369.7 148C364 123.3 360 98.7 371.3 74C382.7 49.3 409.3 24.7 422.7 12.3L436 0L540 0L540 12.3C540 24.7 540 49.3 540 74C540 98.7 540 123.3 540 148C540 172.7 540 197.3 540 221.8C540 246.3 540 270.7 540 295.2C540 319.7 540 344.3 540 369C540 393.7 540 418.3 540 443C540 467.7 540 492.3 540 517C540 541.7 540 566.3 540 591C540 615.7 540 640.3 540 664.8C540 689.3 540 713.7 540 738.2C540 762.7 540 787.3 540 812C540 836.7 540 861.3 540 886C540 910.7 540 935.3 540 947.7L540 960Z" fill="#0b459c" stroke-linecap="round" stroke-linejoin="miter"></path></svg>