<?xml version="1.0" standalone="no"?>
<svg xmlns:xlink="http://www.w3.org/1999/xlink" id="wave" style="transform:rotate(0deg); transition: 0.3s" viewBox="0 0 1440 170" version="1.1" xmlns="http://www.w3.org/2000/svg"><defs><linearGradient id="sw-gradient-0" x1="0" x2="0" y1="1" y2="0"><stop stop-color="rgba(62, 200.081, 243, 1)" offset="0%"/><stop stop-color="rgba(9.448, 255, 138.549, 1)" offset="100%"/></linearGradient></defs><path style="transform:translate(0, 0px); opacity:1" fill="url(#sw-gradient-0)" d="M0,51L80,59.5C160,68,320,85,480,90.7C640,96,800,91,960,90.7C1120,91,1280,96,1440,93.5C1600,91,1760,79,1920,87.8C2080,96,2240,125,2400,138.8C2560,153,2720,153,2880,147.3C3040,142,3200,130,3360,121.8C3520,113,3680,108,3840,113.3C4000,119,4160,136,4320,130.3C4480,125,4640,96,4800,96.3C4960,96,5120,125,5280,124.7C5440,125,5600,96,5760,85C5920,74,6080,79,6240,76.5C6400,74,6560,62,6720,65.2C6880,68,7040,85,7200,76.5C7360,68,7520,34,7680,36.8C7840,40,8000,79,8160,87.8C8320,96,8480,74,8640,68C8800,62,8960,74,9120,90.7C9280,108,9440,130,9600,133.2C9760,136,9920,119,10080,107.7C10240,96,10400,91,10560,90.7C10720,91,10880,96,11040,87.8C11200,79,11360,57,11440,45.3L11520,34L11520,170L11440,170C11360,170,11200,170,11040,170C10880,170,10720,170,10560,170C10400,170,10240,170,10080,170C9920,170,9760,170,9600,170C9440,170,9280,170,9120,170C8960,170,8800,170,8640,170C8480,170,8320,170,8160,170C8000,170,7840,170,7680,170C7520,170,7360,170,7200,170C7040,170,6880,170,6720,170C6560,170,6400,170,6240,170C6080,170,5920,170,5760,170C5600,170,5440,170,5280,170C5120,170,4960,170,4800,170C4640,170,4480,170,4320,170C4160,170,4000,170,3840,170C3680,170,3520,170,3360,170C3200,170,3040,170,2880,170C2720,170,2560,170,2400,170C2240,170,2080,170,1920,170C1760,170,1600,170,1440,170C1280,170,1120,170,960,170C800,170,640,170,480,170C320,170,160,170,80,170L0,170Z"/><defs><linearGradient id="sw-gradient-1" x1="0" x2="0" y1="1" y2="0"><stop stop-color="rgba(0, 182.81, 250.767, 1)" offset="0%"/><stop stop-color="rgba(11, 164.081, 255, 1)" offset="100%"/></linearGradient></defs><path style="transform:translate(0, 50px); opacity:0.9" fill="url(#sw-gradient-1)" d="M0,51L80,48.2C160,45,320,40,480,48.2C640,57,800,79,960,93.5C1120,108,1280,113,1440,99.2C1600,85,1760,51,1920,56.7C2080,62,2240,108,2400,119C2560,130,2720,108,2880,87.8C3040,68,3200,51,3360,53.8C3520,57,3680,79,3840,73.7C4000,68,4160,34,4320,36.8C4480,40,4640,79,4800,96.3C4960,113,5120,108,5280,87.8C5440,68,5600,34,5760,22.7C5920,11,6080,23,6240,25.5C6400,28,6560,23,6720,34C6880,45,7040,74,7200,73.7C7360,74,7520,45,7680,28.3C7840,11,8000,6,8160,25.5C8320,45,8480,91,8640,107.7C8800,125,8960,113,9120,90.7C9280,68,9440,34,9600,39.7C9760,45,9920,91,10080,116.2C10240,142,10400,147,10560,144.5C10720,142,10880,130,11040,113.3C11200,96,11360,74,11440,62.3L11520,51L11520,170L11440,170C11360,170,11200,170,11040,170C10880,170,10720,170,10560,170C10400,170,10240,170,10080,170C9920,170,9760,170,9600,170C9440,170,9280,170,9120,170C8960,170,8800,170,8640,170C8480,170,8320,170,8160,170C8000,170,7840,170,7680,170C7520,170,7360,170,7200,170C7040,170,6880,170,6720,170C6560,170,6400,170,6240,170C6080,170,5920,170,5760,170C5600,170,5440,170,5280,170C5120,170,4960,170,4800,170C4640,170,4480,170,4320,170C4160,170,4000,170,3840,170C3680,170,3520,170,3360,170C3200,170,3040,170,2880,170C2720,170,2560,170,2400,170C2240,170,2080,170,1920,170C1760,170,1600,170,1440,170C1280,170,1120,170,960,170C800,170,640,170,480,170C320,170,160,170,80,170L0,170Z"/></svg>